<?xml version="1.0"?>
<svg xmlns="http://www.w3.org/2000/svg" xmlns:xlink="http://www.w3.org/1999/xlink" xmlns:xcs="https://www.xtool.com/pages/software" version="1.1" preserveAspectRatio="xMinYMin meet" 
width="11.7508544921875mm" height="9.59281158447266mm" viewBox="-368.1629943847656 21.648235321044925 11.7508544921875 9.59281158447266" xcs:version="2.7.22"><style></style>
<path transform="matrix(1,0,0,1,5.68434e-14,0)" stroke="none" fill="white" data-view-type="laser" d="M-364.6839568621972,25.58415977695237C-363.8392138621972,25.32746577695237 
-362.9078808621972,25.497953776952368 -362.2363198621972,26.03674177695237C-361.7029198621972,26.463153776952367 -361.3942718621972,27.070444776952368 
-361.36964186219717,27.706983776952367L-361.3684868621972,27.78857177695237L-361.3334658621972,27.789726776952367C-360.4483138621972,27.830904776952366 
-359.73903886219716,28.54441477695237 -359.69785986219716,29.43302977695237L-359.6963198621972,29.51423277695237C-359.6963198621972,30.44056277695237 
-360.4217598621972,31.196789776952368 -361.3338508621972,31.239123776952365L-361.4146688621972,31.24104777695237L-365.9858988621972,31.24104777695237L-366.0713348621972,
31.237968776952368C-367.20278986219716,31.19563577695237 -368.1175748621972,30.314717776952367 -368.1610628621972,29.212510776952367L-368.1629868621972,
29.129383776952366C-368.1629868621972,28.07220477695237 -367.3625018621972,27.201292776952364 -366.3218718621972,27.04465977695237L-366.2779988621972,
27.03850177695237L-366.25105986219717,26.968844776952366C-365.99590486219716,26.345389776952366 -365.4598108621972,25.850474776952368 -364.7774748621972,
25.614947776952366L-364.6835718621972,25.58415977695237L-364.6839568621972,25.58415977695237ZM-359.69631986219713,28.70785577695236C-359.8363198621971,
28.007855776952365 -360.7461908621972,27.647855776952365 -361.2138378621972,27.647855776952365C-361.2138378621972,26.873111776952367 -361.53906133821596,
25.618620506436294 -363.54906133821595,25.30862050643629C-363.47906133821596,24.978620506436293 -362.9081778621972,24.146633776952367 -361.4678938621972,
24.146633776952367C-360.0276088621972,24.146633776952367 -358.86002786219717,25.31421477695237 -358.86002786219717,26.754498776952367C-358.86002786219717,
28.194783776952367 -359.63201086219715,29.02046577695236 -359.69631986219713,28.70785577695236ZM-364.06983986219717,23.663593776952368C-363.9819328621972,
23.75970577695237 -363.94130486219717,23.882349776952367 -363.9466828621972,24.00294277695237C-363.9520598621972,24.12353477695237 -364.0034408621972,
24.242076776952366 -364.0995528621972,24.32998277695237C-364.1956648621972,24.417889776952368 -364.31830886219717,24.45851777695237 -364.4389018621972,
24.453140776952367C-364.5594938621972,24.447762776952366 -364.6780358621972,24.396381776952367 -364.76594186219717,24.300269776952366L-365.20251986219716,
23.822941776952366C-365.2904268621972,23.72683077695237 -365.33105386219717,23.604186776952368 -365.3256768621972,23.483593776952368C-365.3202998621972,
23.36300077695237 -365.2689178621972,23.244459776952368 -365.1728068621972,23.156552776952367C-365.0766948621972,23.06864577695237 -364.95405086219716,
23.02801877695237 -364.8334578621972,23.033395776952368C-364.7128648621972,23.038772776952367 -364.5943238621972,23.090154776952367 -364.50641686219717,
23.186266776952365L-364.06983986219717,23.663593776952368ZM-361.0924798621972,22.77473577695237C-361.0947078621972,22.90496577695237 -361.1495118621972,
23.021964776952366 -361.2363158621972,23.105848776952367C-361.3231208621972,23.18973277695237 -361.4419258621972,23.240501776952367 -361.5721568621972,
23.23827377695237C-361.70238686219716,23.23604477695237 -361.8193858621972,23.18124177695237 -361.9032698621972,23.094436776952367C-361.9871538621972,
23.007632776952367 -362.0379228621972,22.88882777695237 -362.0356948621972,22.758596776952366L-362.0246278621972,22.111820776952367C-362.0223998621972,
21.981589776952365 -361.9675958621972,21.86459077695237 -361.88079086219716,21.780706776952368C-361.7939868621972,21.696822776952366 -361.6751818621972,
21.646053776952368 -361.5449508621972,21.648281776952366C-361.4147198621972,21.650510776952366 -361.2977218621972,21.705314776952367 -361.2138378621972,
21.792118776952368C-361.12995386219717,21.878923776952366 -361.07918486219717,21.997728776952368 -361.08141286219717,22.12795877695237L-361.0924798621972,
22.77473577695237ZM-357.5386308621972,27.349185776952368C-357.6688618621972,27.34695777695237 -357.7858598621972,27.292153776952368 -357.8697438621972,
27.205349776952367C-357.9536278621972,27.11854477695237 -358.0043968621972,26.999739776952367 -358.0021688621972,26.869508776952365C-357.9999408621972,
26.739278776952368 -357.94513686219716,26.622279776952368 -357.8583318621972,26.538395776952367C-357.7715278621972,26.45451177695237 -357.6527228621972,
26.403742776952367 -357.52249186219717,26.40597077695237L-356.8757158621972,26.417037776952366C-356.7454848621972,26.419265776952365 -356.6284858621972,
26.47406977695237 -356.54460186219717,26.560874776952367C-356.4607178621972,26.647678776952368 -356.4099488621972,26.76648377695237 -356.4121778621972,
26.89671477695237C-356.4144058621972,27.02694577695237 -356.4692098621972,27.143944776952367 -356.5560138621972,27.227827776952367C-356.6428188621972,
27.311711776952368 -356.7616238621972,27.36248077695237 -356.8918548621972,27.36025277695237L-357.5386308621972,27.349185776952368ZM-358.3166868621972,
24.290798776952368C-358.4016458621972,24.389525776952368 -358.51857786219716,24.444469776952367 -358.6389528621972,24.453492776952366C-358.7593278621972,
24.46251577695237 -358.8831448621972,24.42561677695237 -358.9818718621972,24.340658776952367C-359.0805988621972,24.255699776952365 -359.1355438621972,
24.138766776952366 -359.14456686219717,24.018391776952367C-359.1535898621972,23.898017776952365 -359.1166908621972,23.774200776952366 -359.0317318621972,
23.67547277695237L-358.6097948621972,23.185155776952367C-358.52483586219716,23.086428776952367 -358.4079028621972,23.031484776952368 -358.2875288621972,
23.022461776952365C-358.1671538621972,23.013438776952366 -358.0433368621972,23.050337776952368 -357.9446098621972,23.13529577695237C-357.8458818621972,
23.220254776952366 -357.7909378621972,23.337187776952366 -357.7819148621972,23.45756277695237C-357.7728918621972,23.577937776952368 -357.8097908621972,
23.701754776952367 -357.89474886219716,23.800481776952367L-358.3166868621972,24.290798776952368ZM-357.8946228621972,29.834041776952365C-357.8096108621972,
29.932722776952367 -357.7726448621972,30.056519776952367 -357.7816028621972,30.176899776952368C-357.7905598621972,30.29727977695237 -357.84544086219717,
30.41424177695237 -357.9441218621972,30.499254776952366C-358.04280286219716,30.584266776952365 -358.1665998621972,30.62123277695237 -358.2869798621972,
30.612274776952365C-358.40735886219716,30.60331777695237 -358.5243218621972,30.548436776952368 -358.6093338621972,30.449755776952365L-359.0315378621972,
29.959667776952365C-359.1165498621972,29.86098677695237 -359.1535158621972,29.73718977695237 -359.1445588621972,29.616810776952367C-359.1356008621972,
29.49643077695237 -359.0807198621972,29.379467776952367 -358.9820388621972,29.29445577695237C-358.88335786219716,29.20944377695237 -358.7595618621972,
29.17247777695237 -358.6391818621972,29.181434776952365C-358.51880186219717,29.19039277695237 -358.4018388621972,29.245273776952367 -358.3168268621972,
29.34395477695237L-357.8946228621972,29.834041776952365Z" fill-rule="evenodd"></path></svg>